<svg xmlns="http://www.w3.org/2000/svg" width="200" height="40" viewBox="0,0,200,40"><path d="M6 27 C85 19,104 9,189 34" stroke="#777" fill="none"/><path fill="#222" d="M62.48 18.24L62.47 18.23L62.51 18.27Q60.82 14.22 54.62 14.41L54.58 14.37L54.69 14.48Q50.10 14.42 48.12 15.87L48.21 15.96L48.30 16.04Q45.85 17.75 45.85 21.86L45.91 21.92L45.87 23.75L45.76 23.63Q45.83 32.54 54.86 32.54L54.87 32.55L54.78 32.46Q56.86 32.49 58.34 31.69L58.45 31.79L58.39 31.74Q60.22 30.71 60.06 28.84L60.10 28.88L60.08 28.85Q59.91 26.78 56.21 25.87L56.09 25.74L54.31 25.90L54.20 25.80Q53.23 25.77 52.28 25.81L52.41 25.94L52.40 25.94Q52.36 24.94 52.32 23.04L52.21 22.93L52.29 23.01Q59.85 22.92 64.04 22.58L64.13 22.67L64.11 22.65Q64.07 23.48 64.07 24.28L64.04 24.25L64.11 24.32Q64.00 25.02 64.04 25.82L64.21 25.98L64.22 25.99Q62.98 25.85 62.98 25.85L63.03 25.90L62.93 25.80Q61.64 25.89 62.03 25.89L61.98 25.85L61.96 25.83Q63.06 27.46 63.44 29.44L63.47 29.47L63.41 29.41Q63.57 30.18 63.57 30.64L63.63 30.69L63.56 30.62Q63.66 35.37 54.87 35.37L54.75 35.25L54.89 35.40Q47.67 35.29 45.08 33.20L45.18 33.30L45.19 33.30Q43.12 30.86 43.12 25.80L43.05 25.72L43.14 25.81Q43.17 24.78 43.02 22.08L42.86 21.92L42.97 22.02Q42.83 19.68 42.87 18.31L42.87 18.31L42.78 18.22Q42.89 15.36 44.26 13.76L44.34 13.84L44.36 13.86Q46.91 11.80 51.78 11.61L51.77 11.60L54.41 11.50L54.49 11.58Q57.43 11.32 60.86 11.74L60.85 11.74L61.02 11.90Q64.60 12.22 65.56 15.45L65.61 15.50L65.55 15.45Q64.63 16.47 62.54 18.30ZM63.85 20.41L64.08 20.52L64.13 20.58Q65.25 19.41 67.11 17.43L67.03 17.35L67.15 17.47Q66.73 16.40 65.75 14.69L65.70 14.65L65.79 14.73Q64.58 12.04 60.77 11.39L60.81 11.43L60.89 11.51Q58.67 11.30 54.37 11.00L54.39 11.03L51.79 11.24L51.76 11.21Q46.56 11.38 43.97 13.36L43.92 13.30L43.96 13.35Q42.50 14.89 42.39 17.98L42.51 18.11L42.47 18.06Q42.53 17.66 42.76 23.14L42.76 23.15L42.66 23.05Q42.78 24.50 42.85 27.24L42.90 27.29L42.84 27.22Q43.10 31.75 44.85 33.69L44.82 33.66L44.84 33.68Q45.10 34.40 45.98 35.27L46.07 35.37L46.05 35.35Q48.96 37.23 54.48 37.57L54.47 37.56L57.38 37.76L57.29 37.68Q58.81 37.72 60.83 37.60L60.90 37.67L60.97 37.74Q62.33 37.58 64.42 37.04L64.39 37.02L64.42 37.04Q66.47 36.66 66.43 34.34L66.41 34.31L66.29 34.19Q66.43 33.07 65.36 30.30L65.26 30.20L65.35 30.28Q64.98 29.30 64.44 28.50L64.39 28.45L64.53 28.59Q65.15 28.63 66.33 28.82L66.31 28.80L66.22 28.71Q66.00 25.18 66.04 24.50L66.09 24.55L66.00 24.46Q65.71 24.55 65.29 24.51L65.23 24.45L65.17 24.39Q64.88 24.44 64.50 24.52L64.49 24.52L64.37 24.39Q64.40 23.32 64.48 22.25L64.55 22.33L64.49 22.26Q58.15 22.70 51.87 22.59L51.90 22.62L51.85 22.57Q51.90 23.49 51.90 24.41L52.03 24.54L52.03 26.28L52.01 26.27Q52.40 26.28 52.82 26.24L52.86 26.28L52.82 26.25Q53.11 26.12 53.57 26.12L53.63 26.18L53.72 26.27Q53.57 26.57 53.61 27.07L53.61 27.07L53.68 27.14Q53.69 27.61 53.65 28.10L53.66 28.11L53.62 28.07Q54.79 28.17 55.82 28.14L55.73 28.05L55.69 28.00Q56.75 28.04 57.78 28.08L57.85 28.15L57.76 28.06Q58.90 28.40 59.77 28.78L59.80 28.80L59.80 28.84L59.70 28.74Q59.87 30.28 58.19 31.20L58.31 31.32L58.17 31.18Q56.65 32.24 54.94 32.24L54.85 32.16L54.76 32.06Q50.95 32.10 48.51 30.35L48.58 30.41L48.62 30.45Q47.57 28.34 47.72 25.79L47.75 25.82L47.69 25.75Q48.09 21.06 49.94 19.06L49.97 19.09L49.82 18.94Q51.78 17.06 56.47 16.76L56.43 16.72L56.38 16.67Q60.15 16.56 62.09 18.35L62.10 18.35L62.01 18.26Q62.03 18.32 62.14 18.51L62.17 18.53L62.38 18.63L62.26 18.52Q62.94 19.31 63.52 20.42L63.48 20.38L64.00 20.55Z"/><path d="M9 19 C101 11,87 25,186 8" stroke="#444" fill="none"/><path fill="#333" d="M85.79 22.19L85.71 22.11L85.76 22.16Q86.47 22.07 87.88 21.92L88.05 22.09L88.03 22.07Q88.02 22.74 88.02 23.39L87.86 23.23L87.87 24.50L87.94 24.57Q87.02 24.48 86.18 24.56L86.18 24.56L86.21 24.59Q85.39 24.65 84.55 24.61L84.56 24.62L84.55 24.61Q81.80 30.87 78.37 35.48L78.34 35.44L78.35 35.45Q75.87 36.14 74.57 36.74L74.42 36.59L74.56 36.74Q78.65 31.00 81.70 24.72L81.68 24.71L79.01 24.66L78.98 24.63Q79.00 23.31 78.88 21.98L79.00 22.10L78.89 21.99Q80.88 22.23 82.94 22.23L82.83 22.12L84.88 18.58L84.71 18.40Q85.67 16.48 86.89 14.88L87.08 15.07L86.97 14.95Q85.34 15.04 83.74 15.04L83.89 15.19L83.77 15.07Q77.71 15.10 73.94 12.89L74.01 12.96L73.36 11.24L73.41 11.29Q73.04 10.43 72.66 9.55L72.63 9.52L72.69 9.58Q77.02 12.20 82.73 12.43L82.72 12.42L82.62 12.32Q87.86 12.65 93.00 10.67L92.88 10.55L92.84 10.51Q92.66 10.93 92.16 11.81L92.18 11.83L92.32 11.97Q88.66 16.69 85.81 22.21ZM93.89 13.31L93.76 13.18L94.80 11.22L94.90 11.32Q93.84 11.70 92.17 12.43L92.23 12.49L92.32 12.08L92.48 12.24Q92.56 12.06 92.68 11.95L92.64 11.90L92.62 11.89Q93.05 11.25 93.77 9.92L93.64 9.79L93.63 9.78Q88.40 12.16 82.65 11.93L82.66 11.94L82.57 11.85Q76.69 11.72 71.93 8.75L71.87 8.69L71.84 8.65Q72.89 10.55 73.73 13.21L73.79 13.27L73.80 13.28Q74.75 13.77 75.55 14.08L75.72 14.25L75.65 14.18Q75.89 14.61 76.35 16.48L76.33 16.46L76.16 16.29Q79.37 17.60 84.89 17.44L84.90 17.45L84.89 17.44Q84.63 18.06 82.65 21.83L82.73 21.91L82.64 21.82Q80.68 21.91 78.70 21.72L78.67 21.69L78.67 21.69Q78.69 22.48 78.69 23.35L78.59 23.25L78.61 24.99L80.36 25.05L80.40 26.51L80.40 26.51Q76.38 33.80 73.60 37.37L73.76 37.53L73.57 37.34Q75.35 36.76 76.99 36.27L76.94 36.22L76.99 36.27Q76.28 37.15 74.91 38.87L74.87 38.83L74.85 38.81Q78.05 37.74 80.48 37.52L80.52 37.55L80.36 37.40Q83.47 33.80 86.59 27.03L86.49 26.92L89.91 27.11L89.86 27.06Q89.79 26.15 89.79 25.23L89.91 25.35L89.89 23.55L89.89 23.55Q89.49 23.41 88.94 23.45L89.10 23.62L89.06 23.57Q88.39 23.49 88.12 23.49L88.28 23.65L88.30 23.68Q88.13 23.38 88.16 23.23L88.25 23.32L88.21 23.02L88.20 23.00Q90.84 17.99 93.93 13.35Z"/><path fill="#444" d="M140.86 27.06L131.69 17.13L131.72 17.16Q132.50 20.80 132.50 24.53L132.57 24.60L132.54 24.57Q132.49 30.49 130.43 36.05L130.48 36.10L130.55 36.17Q129.51 36.47 127.27 37.23L127.26 37.22L127.25 37.21Q129.97 31.33 129.97 24.63L129.92 24.57L130.05 24.71Q130.01 16.02 125.52 8.60L125.56 8.64L125.44 8.53Q125.92 8.73 126.60 9.15L126.57 9.12L126.70 9.25Q138.80 20.47 146.64 29.72L146.51 29.59L146.59 29.67Q146.29 27.24 146.29 24.81L146.25 24.77L146.22 24.74Q146.30 17.58 148.81 11.37L148.83 11.40L148.83 11.39Q151.16 10.86 152.75 10.18L152.59 10.01L152.70 10.12Q149.34 16.25 149.04 23.40L149.00 23.36L149.08 23.44Q148.66 30.68 151.63 36.84L151.75 36.96L151.82 37.04Q151.20 36.91 150.78 36.72L150.68 36.61L150.72 36.66Q146.22 32.77 141.01 27.21L140.98 27.19ZM154.26 40.04L154.35 40.13L154.44 40.23Q154.86 40.34 155.28 40.53L155.23 40.48L156.07 40.83L156.07 40.83Q150.88 33.85 150.88 24.49L150.84 24.44L150.95 24.55Q150.88 17.25 154.19 11.00L154.25 11.07L154.31 11.13Q153.62 11.31 152.21 11.92L152.12 11.82L152.19 11.90Q152.55 11.04 153.39 9.48L153.38 9.48L153.46 9.55Q150.95 10.39 148.52 10.97L148.40 10.85L148.42 10.87Q145.85 17.40 145.85 24.82L145.96 24.93L145.80 24.77Q145.90 26.74 146.09 28.72L145.99 28.61L146.09 28.72Q141.34 22.94 136.59 18.34L136.70 18.45L126.62 8.75L126.47 8.60Q125.93 8.33 124.72 7.76L124.82 7.87L124.78 7.83Q129.72 15.62 129.72 24.72L129.72 24.72L129.56 24.56Q129.68 31.80 126.60 37.81L126.59 37.81L126.46 37.68Q126.82 37.61 128.45 37.00L128.46 37.01L128.54 37.09Q128.13 37.79 127.29 39.27L127.36 39.34L127.37 39.35Q128.66 38.77 132.12 37.97L132.18 38.03L132.23 38.08Q134.42 31.81 134.42 24.62L134.47 24.67L134.56 24.76Q134.51 22.61 134.28 20.48L134.16 20.37L134.32 20.52Q145.78 33.32 154.39 40.17Z"/><path fill="#444" d="M22.63 14.36L22.61 14.35L22.68 14.41Q23.52 18.64 23.67 22.22L23.64 22.18L23.58 22.13Q24.82 22.34 25.89 22.34L25.75 22.20L28.06 22.31L28.01 22.26Q29.10 22.28 29.97 20.87L29.99 20.88L29.92 20.82Q30.67 19.66 30.79 18.48L30.84 18.54L30.69 18.39Q31.05 15.36 26.82 14.86L26.92 14.96L26.87 14.91Q25.18 14.86 22.55 14.28ZM23.70 24.99L23.59 24.88L23.64 24.92Q23.65 31.22 22.51 35.63L22.51 35.63L22.35 35.48Q20.98 35.98 18.66 37.04L18.69 37.08L18.59 36.97Q20.98 30.34 20.72 23.07L20.86 23.22L20.73 23.09Q20.55 15.82 17.77 9.39L17.72 9.34L17.77 9.38Q21.77 12.02 28.01 12.02L28.03 12.04L28.02 12.03Q34.18 12.13 34.33 15.60L34.25 15.51L34.21 15.47Q34.42 18.05 33.43 20.71L33.35 20.63L33.43 20.71Q32.88 21.68 31.92 22.90L32.05 23.02L32.01 22.99Q30.66 24.56 28.11 24.83L28.08 24.80L28.23 24.95Q25.81 24.82 23.57 24.86ZM29.85 27.25L29.85 27.25L29.84 27.24Q33.96 27.45 35.22 22.65L35.20 22.64L35.20 22.63Q36.21 19.04 36.06 17.02L35.96 16.92L35.89 16.85Q35.92 15.47 35.16 14.48L35.03 14.36L35.11 14.43Q34.70 14.02 34.20 13.79L34.22 13.81L34.31 13.89Q34.34 13.78 33.73 13.01L33.76 13.04L33.64 12.93Q32.16 11.68 28.20 11.68L28.07 11.54L28.21 11.68Q21.20 11.56 16.98 8.40L17.11 8.54L17.10 8.53Q20.10 15.45 20.37 22.91L20.37 22.91L20.50 23.05Q20.78 30.71 18.12 37.79L18.02 37.70L18.06 37.74Q19.23 37.19 20.22 36.81L20.08 36.67L19.82 37.94L19.71 37.82Q19.58 38.45 19.31 39.02L19.40 39.11L19.25 38.97Q21.77 38.02 24.67 37.49L24.61 37.43L24.57 37.39Q25.57 32.04 25.65 27.32L25.59 27.26L25.63 27.30Q26.58 27.07 27.57 27.07L27.66 27.16L27.69 27.19Q29.07 27.24 29.87 27.28ZM28.89 17.31L28.80 17.22L28.92 17.34Q29.39 17.31 30.38 17.54L30.33 17.49L30.31 17.48Q30.39 17.67 30.43 17.98L30.46 18.01L30.51 18.05Q30.48 18.25 30.40 18.52L30.36 18.48L30.46 18.57Q30.40 19.85 29.68 20.72L29.57 20.62L29.52 20.57Q29.01 21.70 27.98 21.89L27.94 21.84L27.96 21.87Q27.29 21.92 25.66 21.92L25.61 21.88L25.58 21.85Q25.54 19.56 25.31 17.20L25.33 17.22L27.11 17.32L27.08 17.29Q28.04 17.42 28.92 17.34Z"/><path fill="#333" d="M163.49 35.32L163.42 35.26L163.47 35.30Q162.08 35.39 160.52 34.98L160.60 35.06L160.54 35.00Q159.33 34.10 159.18 32.46L159.11 32.39L159.17 32.45Q159.15 32.28 159.34 29.65L159.23 29.54L159.33 29.64Q160.30 29.39 162.32 29.01L162.44 29.13L162.27 29.91L162.24 29.89Q161.84 31.50 163.25 32.07L163.31 32.14L163.36 32.19Q164.04 32.41 166.14 32.41L166.17 32.45L166.18 32.45Q167.74 32.27 167.93 32.19L167.98 32.23L168.09 32.34Q168.97 32.16 169.69 31.66L169.54 31.51L169.63 31.60Q171.00 30.61 170.81 28.52L170.81 28.52L170.79 28.50Q170.62 26.09 168.89 24.53L169.02 24.65L169.02 24.66Q167.25 23.06 164.78 23.06L164.71 22.99L164.79 22.85L164.82 22.87Q165.11 22.74 165.99 22.67L166.03 22.71L165.90 22.58Q167.92 22.59 169.29 21.35L169.34 21.40L169.26 21.32Q170.56 20.01 170.71 18.14L170.83 18.26L170.80 18.24Q170.91 17.92 170.91 17.58L170.87 17.54L170.84 17.51Q170.78 15.93 169.41 15.02L169.46 15.07L169.47 15.08Q168.20 14.22 166.60 14.33L166.63 14.37L166.74 14.47Q165.38 14.26 164.16 14.68L164.25 14.76L164.19 14.70Q162.63 15.13 162.33 16.27L162.45 16.39L162.48 16.42Q162.29 17.19 162.37 17.95L162.19 17.77L162.39 17.96Q161.27 17.64 159.21 16.92L159.16 16.87L159.19 16.90Q158.91 15.18 158.95 14.34L159.02 14.41L159.00 14.39Q159.10 12.85 160.16 12.16L160.10 12.10L160.15 12.14Q161.56 11.55 163.16 11.55L163.30 11.69L163.13 11.52Q166.45 11.64 169.61 11.90L169.47 11.76L169.48 11.77Q174.56 12.21 174.26 15.98L174.29 16.01L174.22 15.94Q174.22 17.50 173.72 19.06L173.67 19.01L173.63 18.97Q172.84 22.18 170.48 23.09L170.45 23.05L170.42 23.03Q173.07 23.58 173.68 26.93L173.70 26.95L173.74 27.00Q173.93 28.10 174.00 30.11L174.07 30.18L173.97 30.08Q174.23 34.64 169.62 35.10L169.47 34.95L169.46 34.94Q168.83 35.11 163.54 35.37ZM168.77 37.63L168.82 37.68L168.73 37.59Q169.28 37.58 172.14 37.65L172.15 37.67L172.22 37.73Q173.97 37.80 175.60 37.16L175.51 37.06L175.60 37.15Q176.70 36.12 176.51 34.37L176.47 34.33L176.61 34.47Q176.37 33.02 176.07 31.27L176.21 31.41L176.15 31.35Q175.46 26.89 173.52 25.25L173.45 25.19L173.29 24.83L173.23 24.73L173.28 24.79Q175.06 23.36 175.82 18.98L175.70 18.86L175.77 18.93Q175.72 18.39 175.84 17.44L176.00 17.60L175.90 17.51Q175.98 16.75 175.91 16.07L175.86 16.02L175.97 16.13Q175.68 14.31 174.38 13.63L174.41 13.65L174.46 13.78L174.37 13.69Q174.10 12.73 172.96 12.20L173.02 12.27L173.02 12.27Q171.51 11.59 166.37 11.29L166.37 11.29L166.32 11.24Q164.68 11.20 163.08 11.20L162.99 11.10L162.95 11.07Q161.51 11.22 159.99 11.87L159.94 11.82L159.95 11.84Q158.75 12.62 158.75 14.37L158.65 14.27L158.77 14.39Q158.77 13.97 159.04 17.32L158.97 17.25L158.85 17.13Q159.16 17.21 160.79 17.82L160.97 17.99L160.82 17.84Q160.87 18.42 160.83 18.92L160.77 18.86L160.82 18.91Q160.91 19.50 160.95 20.03L160.89 19.97L160.95 20.03Q162.57 20.24 164.59 20.36L164.63 20.40L164.62 20.38Q164.57 18.39 165.67 17.55L165.64 17.52L165.77 17.66Q166.56 16.96 168.58 16.73L168.48 16.63L168.55 16.71Q169.67 16.68 170.24 16.87L170.28 16.91L170.26 16.89Q170.31 17.02 170.35 17.13L170.36 17.14L170.29 17.27L170.41 17.84L170.55 17.98Q170.54 18.16 170.50 18.31L170.34 18.16L170.51 18.33Q170.36 19.96 168.84 21.14L168.85 21.15L168.76 21.06Q167.99 22.12 165.97 22.31L165.90 22.24L165.88 22.22Q165.12 22.33 164.24 22.33L164.32 22.41L164.34 22.43Q164.37 22.77 164.53 23.45L164.55 23.48L164.51 23.44Q166.19 23.37 167.64 24.09L167.69 24.14L167.52 24.09L165.95 24.27L166.09 24.41Q165.96 24.59 166.08 25.19L166.19 25.30L166.17 25.29Q168.28 25.19 169.99 26.52L170.08 26.61L170.06 26.58Q170.22 26.90 170.53 28.54L170.57 28.58L170.61 28.62Q170.71 31.46 167.77 31.88L167.76 31.87L167.76 31.87Q165.77 32.24 165.20 32.20L165.05 32.05L165.15 32.15Q164.65 32.00 164.12 31.92L164.16 31.96L164.08 31.42L164.31 31.08L164.23 30.58L164.27 30.28L164.26 30.27Q163.40 30.43 162.60 30.62L162.52 30.54L162.53 30.55Q162.55 30.38 162.55 30.19L162.49 30.13L162.64 30.29Q162.57 29.99 162.57 29.76L162.68 29.87L162.62 29.81Q162.63 29.36 162.78 28.63L162.71 28.57L162.76 28.62Q160.86 28.81 158.99 29.15L159.02 29.17L159.04 29.20Q158.96 29.62 158.85 30.74L158.92 30.81L158.91 30.80Q158.89 32.02 158.89 32.63L158.84 32.58L158.80 32.53Q158.88 34.59 160.25 35.36L160.35 35.45L160.19 35.30Q161.82 37.73 166.54 37.54L166.57 37.56L166.58 37.57Q167.25 37.48 168.77 37.63Z"/><path fill="#444" d="M112.43 15.10L112.40 15.07L112.55 15.22Q108.06 15.03 104.37 14.04L104.43 14.10L104.46 14.14Q106.02 18.74 106.21 23.58L106.17 23.54L106.07 23.44Q106.36 28.33 105.14 32.93L105.19 32.98L105.17 32.96Q107.99 32.36 111.49 32.21L111.44 32.16L111.35 32.07Q115.35 31.96 117.14 29.52L117.10 29.48L117.06 29.44Q118.60 27.40 118.79 23.29L118.79 23.28L118.92 23.41Q119.02 21.68 118.56 19.97L118.52 19.94L118.40 19.82Q117.21 15.16 112.49 15.16ZM100.45 37.04L100.55 37.14L100.61 37.19Q103.40 31.42 103.40 24.72L103.38 24.70L103.41 24.73Q103.41 16.21 99.11 9.20L99.16 9.25L99.19 9.28Q104.34 11.84 112.60 12.03L112.67 12.11L112.69 12.12Q121.51 12.26 121.85 19.42L121.91 19.48L121.92 19.48Q122.03 22.18 121.99 23.63L121.95 23.59L121.93 23.57Q121.88 28.28 121.05 30.45L120.95 30.36L121.04 30.45Q120.60 31.53 119.84 32.37L119.76 32.29L119.89 32.42Q118.47 33.90 115.85 34.39L115.90 34.45L115.83 34.38Q114.27 34.68 111.26 34.91L111.30 34.94L111.22 34.87Q105.15 35.38 100.55 37.14ZM118.48 37.03L118.37 36.92L118.53 37.08Q121.23 36.69 122.87 35.21L122.84 35.18L122.90 35.24Q124.11 33.48 124.07 30.74L124.06 30.73L123.94 30.61Q124.10 29.40 123.95 25.89L123.83 25.78L123.50 21.26L123.47 21.23Q123.32 18.98 122.37 16.89L122.28 16.81L122.33 16.86Q121.81 15.91 121.12 15.27L121.23 15.38L121.06 15.05L121.18 15.17Q119.47 12.21 115.06 11.83L115.02 11.79L115.10 11.87Q112.25 11.57 105.24 10.85L105.34 10.94L105.26 10.86Q102.14 10.56 98.45 8.54L98.35 8.44L98.40 8.49Q103.14 15.79 103.14 24.54L103.16 24.56L103.18 24.58Q103.20 31.60 99.85 37.77L99.91 37.83L99.92 37.84Q100.59 37.56 101.92 37.06L101.95 37.09L101.96 37.10Q101.47 37.79 100.59 39.28L100.64 39.33L100.59 39.28Q103.79 38.36 107.14 37.87L106.97 37.70L106.97 37.70Q109.10 37.43 112.76 37.32L112.72 37.28L112.85 37.41Q116.60 37.16 118.42 36.97ZM118.41 23.29L118.52 23.40L118.54 23.42Q118.20 31.45 111.50 31.83L111.51 31.84L111.46 31.79Q109.58 31.97 107.53 32.24L107.35 32.07L107.46 32.17Q108.16 28.30 108.16 24.65L108.17 24.65L108.17 24.65Q108.06 20.85 107.33 17.01L107.40 17.07L107.38 17.06Q109.70 17.48 114.39 17.48L114.35 17.44L114.37 17.45Q115.78 17.34 117.42 18.30L117.39 18.27L117.46 18.34Q118.59 20.46 118.44 23.31Z"/></svg>